<svg width="34" height="33" viewBox="0 0 34 33" fill="none" xmlns="http://www.w3.org/2000/svg">
<g clip-path="url(#clip0_70_3613)">
<path d="M17 33C26.1127 33 33.5 25.6127 33.5 16.5C33.5 7.3873 26.1127 0 17 0C7.8873 0 0.5 7.3873 0.5 16.5C0.5 25.6127 7.8873 33 17 33Z" fill="#3B5998"/>
<path d="M21.1481 17.1459H18.2039V27.9322H13.7431V17.1459H11.6216V13.3552H13.7431V10.9022C13.7431 9.14799 14.5764 6.40112 18.2436 6.40112L21.5478 6.41495V10.0945H19.1504C18.7571 10.0945 18.2042 10.291 18.2042 11.1278V13.3587H21.5378L21.1481 17.1459Z" fill="white"/>
</g>
<defs>
<clipPath id="clip0_70_3613">
<rect width="33" height="33" fill="white" transform="translate(0.5)"/>
</clipPath>
</defs>
</svg>
