<svg width="31" height="31" viewBox="0 0 31 31" fill="none" xmlns="http://www.w3.org/2000/svg">
<g clip-path="url(#clip0_62_882)">
<path d="M30.4842 15.7807C30.4842 14.5516 30.3821 13.6547 30.1612 12.7245H15.7988V18.272H24.2292C24.0593 19.6507 23.1415 21.7268 21.1018 23.122L21.0732 23.3077L25.6143 26.7454L25.929 26.7761C28.8184 24.1684 30.4842 20.3316 30.4842 15.7807Z" fill="#4285F4"/>
<path d="M15.7988 30.397C19.929 30.397 23.3963 29.0681 25.929 26.7761L21.1018 23.122C19.8101 24.0023 18.0763 24.6168 15.7988 24.6168C11.7535 24.6168 8.32019 22.0092 7.09629 18.405L6.9169 18.4199L2.19496 21.9909L2.13321 22.1586C4.64873 27.0418 9.81582 30.397 15.7988 30.397Z" fill="#34A853"/>
<path d="M7.09631 18.405C6.77337 17.4748 6.58648 16.4782 6.58648 15.4485C6.58648 14.4186 6.77337 13.4221 7.07932 12.492L7.07076 12.2939L2.28965 8.6655L2.13322 8.73821C1.09646 10.7646 0.501556 13.0401 0.501556 15.4485C0.501556 17.8568 1.09646 20.1323 2.13322 22.1586L7.09631 18.405Z" fill="#FBBC05"/>
<path d="M15.7988 6.28004C18.6712 6.28004 20.6088 7.49252 21.7137 8.50576L26.0309 4.3866C23.3795 1.97824 19.929 0.5 15.7988 0.5C9.81582 0.5 4.64873 3.85508 2.13321 8.73821L7.0793 12.492C8.32019 8.88775 11.7535 6.28004 15.7988 6.28004Z" fill="#EB4335"/>
</g>
<defs>
<clipPath id="clip0_62_882">
<rect width="30" height="30" fill="white" transform="translate(0.5 0.5)"/>
</clipPath>
</defs>
</svg>
