<svg width="688" height="409" viewBox="0 0 688 409" fill="none" xmlns="http://www.w3.org/2000/svg">
<g clip-path="url(#clip0_62_894)">
<path d="M74.7362 288.433C71.7648 288.753 68.5207 289.232 65.0698 289.938C50.4479 292.918 50.1376 302.846 50.2692 305.121L50.1658 305.055C48.6989 307.415 47.7774 309.803 47.2132 312.05L46.5456 281.617C46.9781 280.714 47.3731 279.69 47.7022 278.646C48.7929 282.021 50.5889 285.199 52.1405 284.992C54.1527 284.72 55.0272 278.797 54.6511 274.594C57.2087 277.885 61.5154 281.41 63.1421 280.32C64.4398 279.455 63.6687 275.882 62.2582 272.629C65.2108 274.406 68.4831 275.572 69.4987 274.444C70.8809 272.902 67.5616 267.646 64.5056 264.713C68.596 265.098 73.8053 264.44 74.1532 262.579C74.4353 261.046 71.3323 259.109 68.013 257.859C71.3417 256.985 74.4635 255.452 74.3601 253.939C74.2379 252.143 69.6115 250.93 65.6152 250.751C68.6242 248.401 71.3887 245.139 70.5424 243.672C69.7619 242.318 66.1511 242.845 62.813 244.039C64.7877 241.218 66.1794 238.031 65.1168 236.94C63.8004 235.587 59.127 237.928 55.9299 240.513C56.5505 236.48 56.2402 231.393 54.4254 230.933C52.9115 230.547 50.7676 233.509 49.3007 236.734C48.6519 233.349 47.3354 230.134 45.8215 230.134C43.6588 230.134 41.9098 236.649 41.9098 240.899C41.9098 241.143 41.9098 241.369 41.9286 241.585C41.7124 241.331 41.4585 241.068 41.1764 240.795C38.1298 237.834 32.234 234.552 30.7201 236.104C29.6669 237.194 31.0492 240.372 33.0239 243.202C29.6857 242.008 26.0655 241.481 25.2945 242.835C24.2507 244.65 28.7172 249.191 32.3468 251.391C32.1306 251.363 31.8955 251.344 31.651 251.325C27.4102 251.033 20.7904 252.34 20.6399 254.493C20.5365 256.007 23.6489 257.539 26.987 258.414C23.6677 259.664 20.5741 261.601 20.8468 263.133C21.1853 264.995 26.3946 265.653 30.4944 265.268C27.4384 268.201 24.1191 273.456 25.5013 274.998C26.5169 276.126 29.7892 274.961 32.7418 273.184C31.3219 276.437 30.5602 280.009 31.8579 280.874C33.5692 282.021 38.2802 278.026 40.7532 274.594C40.4994 278.797 41.5055 284.569 43.499 284.795C44.3358 284.889 45.2197 283.996 46.019 282.632L43.7623 315.341C43.2357 319.148 46.6114 321.64 46.9123 323.201L47.4013 345.351C46.8465 343.771 46.113 342.154 45.1069 340.556L45.0035 340.622C45.1351 338.347 44.8248 328.418 30.2029 325.438C26.752 324.733 23.5079 324.254 20.5365 323.934C17.0291 323.558 15.6562 328.362 18.8251 329.913C23.4138 332.16 27.7299 334.99 29.9866 338.337C35.7414 346.902 43.687 341.957 44.8248 341.186C46.0848 343.292 46.9123 345.407 47.4389 347.419L47.7022 359.181C47.6363 359.463 47.5987 359.613 47.5893 359.623L47.7116 359.66L48.3416 388.128L54.1527 388.081L52.0746 358.983C52.4226 357.413 53.4945 352.064 52.0746 346.517L49.9965 323.652L47.2884 314.664C47.6834 311.881 48.5955 308.76 50.4573 305.666C51.5857 306.437 59.5407 311.392 65.2955 302.818C67.5428 299.471 71.8683 296.641 76.457 294.394C79.6259 292.843 78.2624 288.038 74.7456 288.414L74.7362 288.433ZM48.1911 355.787L48.0783 350.804C48.2946 352.684 48.2852 354.386 48.1911 355.787Z" fill="#33580F" fill-opacity="0.5"/>
<path d="M0 389.501C0 390.122 0.498367 390.62 1.11897 390.62H686.881C687.502 390.62 688 390.122 688 389.501C688 388.88 687.502 388.382 686.881 388.382H1.11897C0.498367 388.382 0 388.88 0 389.501Z" fill="#3F3D56"/>
<path d="M416.164 390.488C444.208 390.488 466.941 367.758 466.941 339.719C466.941 311.68 444.208 288.95 416.164 288.95C388.121 288.95 365.387 311.68 365.387 339.719C365.387 367.758 388.121 390.488 416.164 390.488Z" fill="#3F3D56"/>
<path d="M416.164 373.565C434.86 373.565 450.016 358.412 450.016 339.719C450.016 321.027 434.86 305.873 416.164 305.873C397.469 305.873 382.313 321.027 382.313 339.719C382.313 358.412 397.469 373.565 416.164 373.565Z" fill="white"/>
<path d="M416.165 358.993C426.811 358.993 435.441 350.364 435.441 339.719C435.441 329.075 426.811 320.446 416.165 320.446C405.518 320.446 396.888 329.075 396.888 339.719C396.888 350.364 405.518 358.993 416.165 358.993Z" fill="#3F3D56"/>
<path d="M122.786 390.488C150.83 390.488 173.563 367.758 173.563 339.719C173.563 311.68 150.83 288.95 122.786 288.95C94.7429 288.95 72.0093 311.68 72.0093 339.719C72.0093 367.758 94.7429 390.488 122.786 390.488Z" fill="#3F3D56"/>
<path d="M122.786 373.565C141.482 373.565 156.638 358.412 156.638 339.719C156.638 321.027 141.482 305.873 122.786 305.873C104.091 305.873 88.9349 321.027 88.9349 339.719C88.9349 358.412 104.091 373.565 122.786 373.565Z" fill="white"/>
<path d="M485.626 315.576C479.015 298.907 455.902 247.978 414.735 231.121C414.416 230.989 414.086 230.905 413.748 230.858L281.718 211.951C279.546 211.641 277.515 213.126 277.167 215.298L274.854 229.588C274.694 230.566 274.901 231.572 275.437 232.409C282.141 242.807 325.114 313.404 256.302 313.404C187.489 313.404 168.523 264.168 165.514 255.471C165.232 254.653 165.223 253.769 165.477 252.942L186.333 186.895C186.7 185.72 186.502 184.517 185.9 183.558L195.068 166.531L211.862 176.037L220.56 176.14L250.246 191.653L256.292 181.781L195.068 151.244C195.068 151.244 195.172 144.174 175.425 138.533L144.395 124.431L140.633 129.132L150.037 136.653L150.977 142.294L157.559 144.174L170.724 169.559L166.962 176.836L171.532 179.064L170.225 178.763C168.335 178.331 166.408 179.308 165.636 181.085L144.893 228.62C144.573 229.344 144.047 229.964 143.379 230.397L135.988 235.163C135.302 235.605 134.757 236.254 134.446 237.016L126.002 257.483C125.739 258.122 125.664 258.79 125.73 259.439C115.207 261.432 84.2804 270.044 67.2889 304.012L87.0355 319.995C87.0355 319.995 117.991 299.969 169.144 320.822C178.039 334.661 191.006 346.141 209.737 347.222C259.113 350.08 340.921 352.9 350.324 341.618C357.207 333.354 361.993 328.202 364.071 326.03C364.805 325.269 365.801 324.827 366.854 324.789L481.996 321.113C484.789 321.029 486.641 318.189 485.616 315.595L485.626 315.576Z" fill="#6DA595"/>
<path d="M167.921 167.669C176.231 167.669 182.966 160.934 182.966 152.626C182.966 144.319 176.231 137.584 167.921 137.584C159.612 137.584 152.876 144.319 152.876 152.626C152.876 160.934 159.612 167.669 167.921 167.669Z" fill="#3F3D56"/>
<path d="M408.858 231.187C408.68 231.187 408.501 231.187 408.322 231.177L282.527 226.307C276.96 226.091 272.193 222.546 270.378 217.282L268.657 212.27C267.256 208.19 267.867 203.809 270.331 200.265C272.804 196.72 276.697 194.633 281.013 194.53L410.983 191.54C415.008 191.446 418.882 193.166 421.505 196.269C424.129 199.371 425.201 203.433 424.439 207.429L421.985 220.29C420.772 226.674 415.29 231.177 408.849 231.177L408.858 231.187Z" fill="#3F3D56"/>
<path d="M122.786 358.993C133.432 358.993 142.063 350.364 142.063 339.719C142.063 329.075 133.432 320.446 122.786 320.446C112.14 320.446 103.51 329.075 103.51 339.719C103.51 350.364 112.14 358.993 122.786 358.993Z" fill="#3F3D56"/>
<path d="M459.4 284.851C456.391 284.851 453.523 283.244 451.99 280.47L442.465 263.227C440.951 260.492 441.045 257.286 442.7 254.644C444.355 251.992 447.214 250.507 450.317 250.676L467.609 251.56C470.825 251.729 473.721 253.751 474.981 256.721L480.031 268.662C480.952 270.852 480.933 273.24 479.965 275.412C478.996 277.574 477.229 279.201 474.991 279.972L462.183 284.39C461.271 284.71 460.331 284.861 459.41 284.861L459.4 284.851Z" fill="#3F3D56"/>
<path d="M240.73 399.448C240.589 399.448 240.438 399.448 240.297 399.42L236.461 398.997C235.21 398.856 234.12 398.15 233.48 397.06C232.841 395.969 232.756 394.681 233.245 393.515L253.217 346.094C253.763 344.796 254.976 343.875 256.377 343.696C257.74 343.527 259.066 344.063 259.941 345.125C260.806 346.188 261.069 347.598 260.627 348.895L244.501 396.74C243.955 398.357 242.413 399.438 240.739 399.438L240.73 399.448Z" fill="#3F3D56"/>
<path d="M344.418 68.5192C344.418 68.5192 337.112 53.9091 338.57 40.7656L314.253 53.3638L315.193 77.2816L344.418 68.5192Z" fill="#A0616A"/>
<path d="M329.326 60.1141C341.442 60.1141 351.264 50.2939 351.264 38.1801C351.264 26.0662 341.442 16.246 329.326 16.246C317.211 16.246 307.389 26.0662 307.389 38.1801C307.389 50.2939 317.211 60.1141 329.326 60.1141Z" fill="#A0616A"/>
<path d="M351.734 382.581H338.344L331.978 330.957H351.734V382.581Z" fill="#A0616A"/>
<path d="M305.875 382.271C305.461 382.976 305.236 385.242 305.236 386.051C305.236 388.561 307.267 390.592 309.777 390.592H351.226C352.938 390.592 354.329 389.2 354.329 387.489V385.759C354.329 385.759 356.379 380.569 352.157 374.186C352.157 374.186 346.91 379.187 339.068 371.356L336.755 367.172L320.017 379.413L310.736 380.551C308.705 380.804 306.909 380.513 305.866 382.271H305.875Z" fill="#2F2E41"/>
<path d="M312.269 68.5192L344.418 64.1381L369.262 75.8243L370.719 166.4C370.719 166.4 309.617 173.705 299.989 164.209C290.36 154.714 297.666 78.7482 297.666 78.7482L312.279 68.5192H312.269Z" fill="#E6E6E6"/>
<path d="M323.835 43.7647H317.939C317.939 43.7647 312.824 37.4656 313.51 41.3015C314.197 45.1373 311.442 49.2647 311.442 49.2647L307.314 47.892C307.314 47.892 299.058 13.1717 323.835 11.2632C348.612 9.35465 354.123 28.628 354.123 28.628C354.123 28.628 352.75 38.2647 349.995 35.51C347.239 32.7554 332.1 31.3827 332.1 31.3827L323.844 43.7741L323.835 43.7647Z" fill="#2F2E41"/>
<path d="M308.235 370.98L295.362 374.609L275.202 326.67L294.215 321.301L308.235 370.98Z" fill="#A0616A"/>
<path d="M264.022 383.145C263.815 383.935 264.219 386.173 264.435 386.963C265.112 389.379 267.623 390.78 270.04 390.103L309.928 378.84C311.573 378.379 312.532 376.658 312.072 375.013L311.602 373.349C311.602 373.349 312.166 367.802 306.364 362.8C306.364 362.8 302.678 369.043 293.002 363.628L289.636 360.224L276.857 376.546L268.244 380.165C266.363 380.955 264.548 381.171 264.022 383.145Z" fill="#2F2E41"/>
<path d="M366.328 157.637L370.71 170.894V216.445L357.555 353.935H331.865L328.969 255.791L331.254 207.316L282.254 281.438L303.787 334.379L280.082 350.183C280.082 350.183 244.632 269.414 249.936 261.582C255.239 253.76 302.744 161.37 302.744 161.37C302.744 161.37 366.309 159.104 366.309 157.647L366.328 157.637Z" fill="#2F2E41"/>
<path d="M379.483 105.045L386.545 116.609C386.545 116.609 396.531 155.851 386.545 156.011C376.558 156.171 356.398 136.014 356.398 136.014L359.031 125.493L366.337 128.417L364.88 105.045H379.492H379.483Z" fill="#A0616A"/>
<path d="M357.564 75.6457C357.564 75.6457 380.94 71.5278 383.131 86.8242C385.322 102.121 386.545 116.618 386.545 116.618L361.213 118.715L357.564 75.6457Z" fill="#E6E6E6"/>
<path d="M362.642 134.733C364.757 131.764 361.66 125.931 355.726 121.705C349.791 117.479 343.266 116.46 341.151 119.429C339.036 122.398 342.132 128.23 348.067 132.457C354.001 136.683 360.527 137.702 362.642 134.733Z" fill="#A0616A"/>
<path d="M555.237 288.433C552.266 288.753 549.022 289.232 545.571 289.938C530.949 292.918 530.638 302.846 530.77 305.121L530.667 305.055C529.2 307.415 528.278 309.803 527.714 312.05L527.046 281.617C527.479 280.714 527.874 279.69 528.203 278.646C529.294 282.021 531.09 285.199 532.641 284.992C534.654 284.72 535.528 278.797 535.152 274.594C537.71 277.885 542.016 281.41 543.643 280.32C544.941 279.455 544.17 275.882 542.759 272.629C545.712 274.406 548.984 275.572 549.999 274.444C551.382 272.902 548.062 267.646 545.006 264.713C549.097 265.098 554.306 264.44 554.654 262.579C554.936 261.046 551.833 259.109 548.514 257.859C551.843 256.985 554.964 255.452 554.861 253.939C554.739 252.143 550.112 250.93 546.116 250.751C549.125 248.401 551.89 245.139 551.043 243.672C550.263 242.318 546.652 242.845 543.314 244.039C545.289 241.218 546.68 238.031 545.618 236.94C544.301 235.587 539.628 237.928 536.431 240.513C537.051 236.48 536.741 231.393 534.926 230.933C533.412 230.547 531.268 233.509 529.802 236.734C529.153 233.349 527.836 230.134 526.322 230.134C524.16 230.134 522.411 236.649 522.411 240.899C522.411 241.143 522.411 241.369 522.429 241.585C522.213 241.331 521.959 241.068 521.677 240.795C518.631 237.834 512.735 234.552 511.221 236.104C510.168 237.194 511.55 240.372 513.525 243.202C510.187 242.008 506.566 241.481 505.795 242.835C504.752 244.65 509.218 249.191 512.848 251.391C512.631 251.363 512.396 251.344 512.152 251.325C507.911 251.033 501.291 252.34 501.141 254.493C501.037 256.007 504.15 257.539 507.488 258.414C504.169 259.664 501.075 261.601 501.348 263.133C501.686 264.995 506.895 265.653 510.995 265.268C507.939 268.201 504.62 273.456 506.002 274.998C507.018 276.126 510.29 274.961 513.243 273.184C511.823 276.437 511.061 280.009 512.359 280.874C514.07 282.021 518.781 278.026 521.254 274.594C521 278.797 522.006 284.569 524 284.795C524.837 284.889 525.721 283.996 526.52 282.632L524.263 315.341C523.736 319.148 527.112 321.64 527.413 323.201L527.902 345.351C527.347 343.771 526.614 342.154 525.608 340.556L525.504 340.622C525.636 338.347 525.326 328.418 510.704 325.438C507.253 324.733 504.009 324.254 501.037 323.934C497.53 323.558 496.157 328.362 499.326 329.913C503.915 332.16 508.231 334.99 510.487 338.337C516.242 346.902 524.188 341.957 525.326 341.186C526.586 343.292 527.413 345.407 527.94 347.419L528.203 359.181C528.137 359.463 528.1 359.613 528.09 359.623L528.212 359.66L528.842 388.128L534.654 388.081L532.575 358.983C532.923 357.413 533.995 352.064 532.575 346.517L530.497 323.652L527.789 314.664C528.184 311.881 529.096 308.76 530.958 305.666C532.086 306.437 540.042 311.392 545.796 302.818C548.044 299.471 552.369 296.641 556.958 294.394C560.127 292.843 558.763 288.038 555.246 288.414L555.237 288.433ZM528.692 355.787L528.579 350.804C528.795 352.684 528.786 354.386 528.692 355.787Z" fill="#9AAC87"/>
<path d="M487.563 384.593L497.671 382.412L494.051 342.417L479.147 345.633L487.563 384.593Z" fill="#A0616A"/>
<path d="M522.129 376.893C522.561 377.354 523.097 379.028 523.229 379.648C523.642 381.538 522.439 383.409 520.539 383.813L489.255 390.573C487.967 390.855 486.688 390.027 486.406 388.739L486.124 387.433C486.124 387.433 483.726 383.851 485.87 378.341C485.87 378.341 490.647 381.265 495.282 374.063L496.345 370.528L510.976 377.034L518.16 376.386C519.731 376.245 521.047 375.728 522.119 376.893H522.129Z" fill="#2F2E41"/>
<path d="M505.635 381.538L514.061 375.558L495 340.208L482.56 349.027L505.635 381.538Z" fill="#A0616A"/>
<path d="M534.381 360.854C534.954 361.108 536.111 362.434 536.468 362.951C537.587 364.53 537.221 366.721 535.641 367.84L509.538 386.361C508.456 387.122 506.971 386.869 506.2 385.797L505.429 384.706C505.429 384.706 501.818 382.356 501.62 376.442C501.62 376.442 507.159 377.251 508.597 368.808L508.184 365.141L524.197 365.367L530.554 361.945C531.945 361.193 532.951 360.205 534.39 360.854H534.381Z" fill="#2F2E41"/>
<path d="M384.213 183.774C384.213 183.774 368.5 205.135 399.925 229.156L464.102 208.651L441.177 160.853L420.875 149.721L384.203 183.765L384.213 183.774Z" fill="#2F2E41"/>
<path d="M464.111 208.66L488.992 257.107L504.714 357.949L485.071 359.256L465.418 263.66L430.711 211.932L454.943 200.8" fill="#2F2E41"/>
<path d="M399.935 213.944V229.165L444.468 278.063C444.468 278.063 444.468 314.73 461.497 331.756L481.14 361.879L498.169 352.712L473.289 264.976L428.755 207.353L399.944 213.944H399.935Z" fill="#2F2E41"/>
<path d="M431.576 63.0568L423.189 95.0319L391.208 88.7422C391.208 88.7422 413.522 65.7363 410.381 55.2535L431.586 63.0568H431.576Z" fill="#A0616A"/>
<path d="M407.137 67.8799L426.781 77.0465C426.781 77.0465 436.889 83.2234 437.077 87.3413C437.265 91.4592 435.949 111.099 435.949 111.099C435.949 111.099 443.81 118.959 438.572 134.669L441.196 160.862L382.257 192.292L387.494 137.292L384.871 86.2225L407.137 67.8893V67.8799Z" fill="#3F3D56"/>
<path d="M389.507 216.915C391.81 222.189 396.399 225.282 399.756 223.816C403.113 222.349 403.969 216.887 401.674 211.612C400.781 209.488 399.399 207.617 397.631 206.141L387.598 183.906L377.264 188.832L388.247 210.23C388.124 212.524 388.557 214.818 389.507 216.915Z" fill="#A0616A"/>
<path d="M399.935 89.4943C399.935 89.4943 385.529 80.3277 380.291 90.8011C375.054 101.275 363.262 154.967 363.262 154.967L380.291 206.037L396.004 199.494L382.247 144.532L399.925 89.4943H399.935Z" fill="#3F3D56"/>
<path d="M473.778 208.67C477.859 212.731 483.265 213.916 485.851 211.312C488.437 208.707 487.215 203.32 483.134 199.259C481.526 197.613 479.542 196.382 477.36 195.658L459.842 178.678L452.047 187.065L470.139 202.906C470.872 205.088 472.123 207.062 473.778 208.66V208.67Z" fill="#A0616A"/>
<path d="M436.522 86.3636C436.522 86.3636 411.406 85.3388 410.391 97.0062C409.385 108.674 426.555 160.74 426.555 160.74L461.206 201.947L473.401 190.073L440.368 144.043L436.532 86.3636H436.522Z" fill="#3F3D56"/>
<path d="M362.98 180.907L342.002 117.229C325.039 102.29 306.637 138.27 257.242 117.868L272.776 189.895C310.125 169.709 342.265 161.802 362.98 180.907Z" fill="white"/>
<path d="M272.776 191.775C272.644 191.775 272.503 191.747 272.381 191.69C272.108 191.568 271.92 191.324 271.854 191.032L256.32 119.006C256.245 118.668 256.367 118.31 256.64 118.085C256.913 117.859 257.279 117.803 257.599 117.934C285.658 129.517 303.769 122.626 316.999 117.586C327.051 113.76 334.987 110.733 342.622 117.455C342.745 117.568 342.839 117.709 342.895 117.868L363.874 181.546C364.005 181.95 363.845 182.401 363.488 182.627C363.131 182.862 362.651 182.815 362.341 182.524C344.136 165.732 315.814 168.628 273.227 191.653C273.086 191.728 272.936 191.765 272.776 191.765V191.775ZM258.53 120.341L273.425 189.415C314.291 167.537 342.284 164.162 361.024 178.951L341.174 118.715C334.451 112.961 327.389 115.65 317.657 119.354C304.399 124.403 286.335 131.285 258.53 120.35V120.341Z" fill="#3F3D56"/>
<path d="M289.777 86.89L276.5 89.6353C276.5 89.6353 241.012 109.163 247.726 116.562C254.43 123.961 282.931 124.91 282.931 124.91L288.818 115.8L281.69 112.463L299.763 97.5609L289.777 86.89Z" fill="#A0616A"/>
<path d="M326.223 82.8003C326.223 82.8003 313.256 62.9158 300.59 71.7722C287.924 80.6285 276.509 89.6353 276.509 89.6353L292.287 109.557L326.233 82.8003H326.223Z" fill="#E6E6E6"/>
<path d="M305.457 124.703C306.18 121.131 300.977 117.063 293.836 115.618C286.694 114.174 280.319 115.898 279.596 119.471C278.873 123.044 284.076 127.111 291.217 128.556C298.358 130.001 304.734 128.276 305.457 124.703Z" fill="#A0616A"/>
<path d="M550.676 396.693C555.06 396.693 558.613 393.141 558.613 388.758C558.613 384.376 555.06 380.823 550.676 380.823C546.293 380.823 542.74 384.376 542.74 388.758C542.74 393.141 546.293 396.693 550.676 396.693Z" fill="#2F2E41"/>
<path d="M561.255 409C565.638 409 569.191 405.447 569.191 401.065C569.191 396.683 565.638 393.13 561.255 393.13C556.872 393.13 553.319 396.683 553.319 401.065C553.319 405.447 556.872 409 561.255 409Z" fill="#2F2E41"/>
<path d="M640.599 409C644.982 409 648.535 405.447 648.535 401.065C648.535 396.683 644.982 393.13 640.599 393.13C636.216 393.13 632.663 396.683 632.663 401.065C632.663 405.447 636.216 409 640.599 409Z" fill="#2F2E41"/>
<path d="M572.877 282.322V196.156C572.877 186.51 580.945 184.122 590.593 184.122C595.323 184.122 597.617 183.577 600.936 186.942C604.256 190.308 607.942 191.709 607.866 196.438L606.475 280.987L572.868 282.313L572.877 282.322ZM591.533 189.772C582.92 189.772 574.758 187.553 574.758 196.165V280.376L604.632 279.191L605.995 196.419C606.061 192.198 599.197 192.781 596.244 189.772C593.282 186.764 595.765 189.772 591.543 189.772H591.533Z" fill="#2F2E41"/>
<path d="M549.257 281.279L548.053 375.417C548.034 376.63 548.326 377.824 548.89 378.896L557.785 395.697C559.092 398.169 561.706 399.664 564.499 399.542L642.602 396.101C646.598 395.922 649.692 392.538 649.513 388.542L644.614 281.053C644.435 277.189 641.257 274.143 637.383 274.143H556.488C552.529 274.143 549.304 277.33 549.247 281.288L549.257 281.279Z" fill="#6DA594"/>
<path d="M580.042 323.765L578.162 323.671L578.858 309.737C579.234 302.235 585.412 296.218 592.925 296.039L626.184 295.268C632.898 295.155 638.464 300.242 638.831 306.954L639.536 319.694L637.656 319.797L636.95 307.058C636.631 301.37 631.882 297.008 626.221 297.149L592.962 297.919C586.427 298.07 581.058 303.307 580.729 309.831L580.033 323.765H580.042Z" fill="#2F2E41"/>
<path d="M578.717 391.25L576.845 391.062L580.898 351.518C581.65 344.204 587.753 338.441 595.097 338.112L627.538 336.654C631.628 336.466 635.512 337.914 638.483 340.725C641.454 343.536 643.109 347.335 643.156 351.424L643.523 385.853L641.643 385.872L641.276 351.443C641.238 347.871 639.79 344.552 637.195 342.088C634.6 339.625 631.186 338.365 627.632 338.525L595.191 339.983C588.769 340.274 583.437 345.304 582.779 351.697L578.726 391.24L578.717 391.25Z" fill="#2F2E41"/>
<path d="M564.179 388.514L562.299 388.486L563.484 298.117C563.568 291.94 568.467 286.957 574.645 286.769L638.587 284.889L638.643 286.769L574.702 288.649C569.53 288.8 565.43 292.965 565.364 298.136L564.179 388.504V388.514Z" fill="#2F2E41"/>
<path d="M564.349 375.643H563.042V293.341C563.042 290.737 560.926 288.612 558.312 288.612H551.006V286.732H558.312C561.763 286.732 564.603 289.392 564.894 292.758C564.913 292.946 564.922 293.143 564.922 293.341V332.311L564.349 375.643Z" fill="#2F2E41"/>
<path d="M445.23 45.9647C445.23 58.0176 435.46 67.7859 423.405 67.7859C411.35 67.7859 401.58 58.0176 401.58 45.9647C401.58 33.9117 411.35 24.1434 423.405 24.1434C435.46 24.1434 445.23 33.9117 445.23 45.9647Z" fill="#A0616A"/>
<path d="M421.665 16.6315C422.295 16.9982 423.142 16.4435 423.348 15.7384C423.555 15.0332 423.311 14.2905 423.085 13.5948C422.69 12.429 422.305 11.2726 421.91 10.1068C421.073 7.63413 420.189 5.07688 418.384 3.19655C415.657 0.357251 411.312 -0.366676 407.41 0.159816C402.398 0.836735 397.452 3.54441 395.12 8.0384C392.788 12.5324 393.785 18.7939 397.998 21.5956C391.989 28.4776 389.901 36.1493 390.231 45.2689C390.56 54.3979 400.508 62.7936 406.996 69.2243C408.444 68.35 409.761 64.2321 408.962 62.7372C408.162 61.2423 409.31 59.5124 408.322 58.1304C407.335 56.7578 406.507 58.9483 407.504 57.5757C408.134 56.7107 405.68 54.727 406.611 54.2099C411.134 51.7091 412.638 46.0681 415.478 41.7527C418.91 36.5442 424.768 33.0186 430.984 32.4357C434.407 32.116 438.017 32.6989 440.82 34.6827C443.622 36.6664 445.436 40.2108 444.788 43.586C446.471 41.8749 447.308 39.3741 446.997 36.9955C446.678 34.6169 445.22 32.4169 443.142 31.2041C444.402 27.0391 443.321 22.2443 440.396 19.0289C437.472 15.8042 425.615 16.3589 421.346 17.205L421.675 16.6409L421.665 16.6315Z" fill="#2F2E41"/>
<path d="M421.007 32.5579C415.356 33.169 411.275 38.0673 407.824 42.5895C405.84 45.1937 403.752 48.0706 403.809 51.3518C403.856 54.6612 406.075 57.5099 407.137 60.6407C408.868 65.774 407.184 71.8756 403.066 75.3918C407.137 76.1628 411.538 73.1166 412.234 69.0269C413.052 64.2791 409.451 59.6911 409.874 54.8868C410.25 50.6561 413.588 47.4031 416.418 44.2348C419.258 41.0664 421.919 36.8733 420.612 32.8306L421.007 32.5579Z" fill="#2F2E41"/>
</g>
<defs>
<clipPath id="clip0_62_894">
<rect width="688" height="409" fill="white"/>
</clipPath>
</defs>
</svg>
